<svg height="512pt" viewBox="0 -59 512 512" width="512pt" xmlns="http://www.w3.org/2000/svg"><path d="m496.882812 342.804688h-481.765624c-8.347657 0-15.117188-6.765626-15.117188-15.117188v-312.570312c0-8.347657 6.769531-15.117188 15.117188-15.117188h481.765624c8.347657 0 15.117188 6.769531 15.117188 15.117188v312.570312c0 8.351562-6.769531 15.117188-15.117188 15.117188zm0 0" fill="#f28424"/><path d="m496.882812 0h-240.882812v342.804688h240.882812c8.347657 0 15.117188-6.765626 15.117188-15.117188v-312.570312c0-8.347657-6.769531-15.117188-15.117188-15.117188zm0 0" fill="#a14800"/><path d="m403.605469 85.699219h-107.746094c-15.679687 0-29.835937 6.609375-39.859375 17.175781-10.023438-10.566406-24.179688-17.175781-39.859375-17.175781h-107.746094c-30.3125 0-54.976562 24.664062-54.976562 54.980469v35.757812c0 8.351562 6.769531 15.121094 15.117187 15.121094h374.929688c8.347656 0 15.117187-6.769532 15.117187-15.121094v-35.757812c0-30.316407-24.664062-54.980469-54.976562-54.980469zm0 0" fill="#f2f6fc"/><path d="m403.605469 85.699219h-107.746094c-15.675781 0-29.835937 6.609375-39.859375 17.171875v88.6875h187.464844c8.347656 0 15.117187-6.769532 15.117187-15.121094v-35.757812c0-30.316407-24.664062-54.980469-54.976562-54.980469zm0 0" fill="#dce1eb"/><path d="m138.03125 393.328125h-88.59375c-8.347656 0-15.117188-6.769531-15.117188-15.117187v-50.523438c0-8.347656 6.769532-15.117188 15.117188-15.117188h88.59375c8.347656 0 15.117188 6.769532 15.117188 15.117188v50.523438c0 8.351562-6.769532 15.117187-15.117188 15.117187zm0 0" fill="#a14800"/><path d="m460.019531 393.328125h-88.589843c-8.351563 0-15.121094-6.769531-15.121094-15.117187v-50.523438c0-8.347656 6.769531-15.117188 15.121094-15.117188h88.589843c8.351563 0 15.121094 6.769532 15.121094 15.117188v50.523438c0 8.351562-6.769531 15.117187-15.121094 15.117187zm0 0" fill="#692f00"/><path d="m496.882812 342.804688h-481.765624c-8.347657 0-15.117188-6.765626-15.117188-15.117188v-94.265625c0-39.753906 32.339844-72.09375 72.09375-72.09375h367.8125c39.753906 0 72.09375 32.339844 72.09375 72.09375v94.265625c0 8.351562-6.769531 15.117188-15.117188 15.117188zm0 0" fill="#7be3df"/><path d="m439.90625 161.328125h-183.90625v181.476563h240.882812c8.347657 0 15.117188-6.765626 15.117188-15.117188v-94.265625c0-39.753906-32.339844-72.09375-72.09375-72.09375zm0 0" fill="#12c0c9"/></svg>