<svg height="472pt" viewBox="0 -31 472 471" width="472pt" xmlns="http://www.w3.org/2000/svg"><path d="m328 184.5c-.859375 0-1.710938-.136719-2.527344-.40625l-62.464844-20.800781c-10.257812-3.371094-16.539062-13.703125-14.8125-24.359375 1.726563-10.660156 10.953126-18.476563 21.75-18.433594h90.054688c4.417969 0 8 3.582031 8 8s-3.582031 8-8 8h-90.054688c-2.925781-.007812-5.421874 2.109375-5.890624 4.996094-.464844 2.886718 1.238281 5.683594 4.015624 6.597656l62.457032 20.796875c3.753906 1.222656 6.054687 4.992187 5.425781 8.886719-.632813 3.898437-4.007813 6.75-7.953125 6.722656zm0 0" fill="#a8a8a8"/><path d="m472 352.5h-48l-72-224h48zm0 0" fill="#b9b9b9"/><path d="m392 320.5-16 16v16h-344c-13.253906 0-24 10.746094-24 24s10.746094 24 24 24h416l24-48v-32zm0 0" fill="#4799cf"/><path d="m56 376.5c0 13.253906-10.746094 24-24 24s-24-10.746094-24-24 10.746094-24 24-24 24 10.746094 24 24zm0 0" fill="#b9b9b9"/><path d="m56 368.5h24v16h-24zm0 0" fill="#6cbae5"/><path d="m32 408.5c-17.671875 0-32-14.328125-32-32s14.328125-32 32-32 32 14.328125 32 32-14.328125 32-32 32zm0-48c-8.835938 0-16 7.164062-16 16s7.164062 16 16 16 16-7.164062 16-16-7.164062-16-16-16zm0 0" fill="#878787"/><path d="m432 96.5v8h-24l-8-8 21.0625-84.238281c1.726562-6.914063 7.933594-11.761719 15.058594-11.761719 4.78125-.007812 9.304687 2.191406 12.25 5.960938 2.945312 3.769531 3.992187 8.6875 2.828125 13.328124zm0 0" fill="#6cbae5"/><g fill="#c0f5f9"><path d="m72 312.5h16v16h-16zm0 0"/><path d="m104 312.5h32v16h-32zm0 0"/><path d="m152 312.5h56v16h-56zm0 0"/><path d="m256 312.5h16v16h-16zm0 0"/><path d="m288 312.5h16v16h-16zm0 0"/></g><path d="m448 400.5h-104v-24l32-24h96zm0 0" fill="#cdcdcd"/><path d="m384 352.5-32 24v24h85.144531l24-48zm0 0" fill="#b9b9b9"/><path d="m96 368.5h16v16h-16zm0 0" fill="#6cbae5"/><path d="m405.144531 144.5-5.144531-16v-8h-48v8l5.144531 16zm0 0" fill="#878787"/><path d="m413.710938 320.5h48l-5.144532-16h-48zm0 0" fill="#a8a8a8"/><path d="m404 80.5-4 16h32l4-16zm0 0" fill="#64acd3"/><path d="m448 128.5h-128l-16-32h128zm0 0" fill="#4799cf"/></svg>